<?xml version="1.0" encoding="UTF-8" standalone="no"?>
<!DOCTYPE svg PUBLIC "-//W3C//DTD SVG 1.1//EN"
 "http://www.w3.org/Graphics/SVG/1.1/DTD/svg11.dtd">
<!-- Generated by graphviz version 2.40.1 (20161225.0304)
 -->
<!-- Title: srfi_states Pages: 1 -->
<svg width="620pt" height="161pt"
 viewBox="0.00 0.00 620.30 160.60" xmlns="http://www.w3.org/2000/svg" xmlns:xlink="http://www.w3.org/1999/xlink">
<g id="graph0" class="graph" transform="scale(1 1) rotate(0) translate(4 156.598)">
<title>srfi_states</title>
<polygon fill="#ffffff" stroke="transparent" points="-4,4 -4,-156.598 616.297,-156.598 616.297,4 -4,4"/>
<!-- FINAL -->
<g id="node1" class="node">
<title>FINAL</title>
<ellipse fill="none" stroke="#000000" cx="449.297" cy="-94.799" rx="48.5816" ry="19.6"/>
<text text-anchor="middle" x="449.297" y="-90.399" font-family="Times,serif" font-size="18.00" fill="#000000">FINAL</text>
</g>
<!-- FINAL&#45;&gt;FINAL -->
<g id="edge5" class="edge">
<title>FINAL&#45;&gt;FINAL</title>
<path fill="none" stroke="#000000" d="M423.1564,-111.9033C416.853,-122.5069 425.5665,-132.598 449.297,-132.598 465.2409,-132.598 474.4059,-128.0427 476.7921,-121.8373"/>
<polygon fill="#000000" stroke="#000000" points="480.2566,-121.3388 475.4376,-111.9033 473.3208,-122.2845 480.2566,-121.3388"/>
<text text-anchor="middle" x="449.297" y="-138.198" font-family="Times,serif" font-size="18.00" fill="#000000"> Publish errata.</text>
</g>
<!-- WITHDRAWN -->
<g id="node2" class="node">
<title>WITHDRAWN</title>
<ellipse fill="none" stroke="#000000" cx="449.297" cy="-19.799" rx="92.7622" ry="19.6"/>
<text text-anchor="middle" x="449.297" y="-15.399" font-family="Times,serif" font-size="18.00" fill="#000000">WITHDRAWN</text>
</g>
<!-- FINAL&#45;&gt;WITHDRAWN -->
<g id="edge6" class="edge">
<title>FINAL&#45;&gt;WITHDRAWN</title>
<path fill="none" stroke="#000000" d="M449.297,-74.575C449.297,-66.3153 449.297,-58.0556 449.297,-49.7959"/>
<polygon fill="#000000" stroke="#000000" points="452.7971,-49.7208 449.297,-39.7209 445.7971,-49.7209 452.7971,-49.7208"/>
<text text-anchor="middle" x="530.797" y="-57.7522" font-family="Times,serif" font-size="18.00" fill="#000000"> Publish replacement. </text>
</g>
<!-- invisible_start -->
<!-- DRAFT -->
<g id="node4" class="node">
<title>DRAFT</title>
<ellipse fill="none" stroke="#000000" cx="185.633" cy="-56.799" rx="53.066" ry="19.6"/>
<text text-anchor="middle" x="185.633" y="-52.399" font-family="Times,serif" font-size="18.00" fill="#000000">DRAFT</text>
</g>
<!-- invisible_start&#45;&gt;DRAFT -->
<g id="edge1" class="edge">
<title>invisible_start&#45;&gt;DRAFT</title>
<path fill="none" stroke="#000000" d="M3.8645,-56.799C15.551,-56.799 74.5727,-56.799 122.237,-56.799"/>
<polygon fill="#000000" stroke="#000000" points="122.5226,-60.2991 132.5226,-56.799 122.5225,-53.2991 122.5226,-60.2991"/>
<text text-anchor="start" x="21.6" y="-82.399" font-family="Times,serif" font-size="18.00" fill="#000000"> Publish first</text>
<text text-anchor="start" x="48.1" y="-62.399" font-family="Times,serif" font-size="18.00" fill="#000000">draft.</text>
</g>
<!-- DRAFT&#45;&gt;FINAL -->
<g id="edge3" class="edge">
<title>DRAFT&#45;&gt;FINAL</title>
<path fill="none" stroke="#000000" d="M235.2262,-63.9465C280.1156,-70.4161 346.1857,-79.9383 393.0331,-86.6901"/>
<polygon fill="#000000" stroke="#000000" points="392.6219,-90.1669 403.019,-88.1293 393.6205,-83.2385 392.6219,-90.1669"/>
<text text-anchor="middle" x="297.666" y="-84.399" font-family="Times,serif" font-size="18.00" fill="#000000"> Finalize.</text>
</g>
<!-- DRAFT&#45;&gt;WITHDRAWN -->
<g id="edge4" class="edge">
<title>DRAFT&#45;&gt;WITHDRAWN</title>
<path fill="none" stroke="#000000" d="M233.7375,-48.4162C241.3994,-47.155 249.2442,-45.9071 256.666,-44.799 289.7721,-39.8562 326.1645,-34.988 358.3179,-30.8796"/>
<polygon fill="#000000" stroke="#000000" points="359.1198,-34.3059 368.5989,-29.5733 358.2374,-27.3618 359.1198,-34.3059"/>
<text text-anchor="middle" x="297.666" y="-50.399" font-family="Times,serif" font-size="18.00" fill="#000000"> Withdraw.</text>
</g>
<!-- DRAFT&#45;&gt;DRAFT -->
<g id="edge2" class="edge">
<title>DRAFT&#45;&gt;DRAFT</title>
<path fill="none" stroke="#000000" d="M165.4995,-75.4693C162.0781,-85.4789 168.7893,-94.598 185.633,-94.598 196.4235,-94.598 203.0557,-90.8555 205.5294,-85.534"/>
<polygon fill="#000000" stroke="#000000" points="209.0299,-85.549 205.7666,-75.4693 202.0318,-85.384 209.0299,-85.549"/>
<text text-anchor="start" x="138.633" y="-120.198" font-family="Times,serif" font-size="18.00" fill="#000000"> Publish new</text>
<text text-anchor="start" x="165.633" y="-100.198" font-family="Times,serif" font-size="18.00" fill="#000000">draft.</text>
</g>
</g>
</svg>
